# xmcd CD database file
#
# Track frame offsets:
#	150
#	21840
#	36176
#	67981
#	86446
#	104574
#	128961
#	143099
#	162175
#	185161
#	201871
#	218382
#
# Disc length: 3134 seconds
#
# Revision: 2
# Processed by: cddbd v1.5.2PL0 Copyright (c) Steve Scherf et al.
# Submitted via: jetAudio 7
#
DISCID=a60c3c0c
DTITLE=ねぴあ軍団 - いんた〜みっしょん
DYEAR=1900
DGENRE=blues
TTITLE0=河島はるか -Summer Mix-
TTITLE1=An end. And...
TTITLE2=夏草の線路 -Sepia Mix-
TTITLE3=回想録 -夏ボッサ-
TTITLE4=ためいき -NatsuyasuMix-
TTITLE5=Aqua
TTITLE6=輝く夏・・
TTITLE7=あの日へ...
TTITLE8=Cool
TTITLE9=ai
TTITLE10=日だまりの中で -Acoustic Mix-
TTITLE11=ユカウラ
EXTD=
EXTT0=
EXTT1=
EXTT2=
EXTT3=
EXTT4=
EXTT5=
EXTT6=
EXTT7=
EXTT8=
EXTT9=
EXTT10=
EXTT11=
PLAYORDER=
